<svg xmlns="http://www.w3.org/2000/svg" width="7674.667" height="5790.667" viewBox="0 0 5756 4343" preserveAspectRatio="xMidYMid meet" xmlns:v="https://vecta.io/nano"><path d="M954 684c0 2.7-.3 3-3 3s-3 .3-3 3-.3 3-3 3h-3v819.5V2332H672.5 403v3c0 2.7-.3 3-3 3s-3 .3-3 3-.3 3-3 3h-3v269.5V2883h3c2.7 0 3 .3 3 3s.3 3 3 3 3 .3 3 3v3h545 545v-3c0-2.7.3-3 3-3s3-.3 3-3 .3-3 3-3h3v-819.5V1244h543.5H2592v819 819h-269-269v3c0 2.7-.3 3-3 3s-3 .3-3 3-.3 3-3 3h-3v269.5V3433h3c2.7 0 3 .3 3 3s.3 3 3 3 3 .3 3 3v3h820 820v-3c0-2.7.3-3 3-3s3-.3 3-3 .3-3 3-3h3v-269.5V2894h-3c-2.7 0-3-.3-3-3s-.3-3-3-3-3-.3-3-3v-3h-269.5H3155v-819-819h544 544v819.5V2883h3c2.7 0 3 .3 3 3s.3 3 3 3 3 .3 3 3v3h544.5H5344v-3c0-2.7.3-3 3-3s3-.3 3-3 .3-3 3-3h3v-269.5V2344h-3c-2.7 0-3-.3-3-3s-.3-3-3-3-3-.3-3-3v-3h-269-269v-819.5V693h-3c-2.7 0-3-.3-3-3s-.3-3-3-3-3-.3-3-3v-3H2874 954v3z"/></svg>